<?xml version="1.0" encoding="utf-8" standalone="no"?>
<!DOCTYPE svg PUBLIC "-//W3C//DTD SVG 1.1//EN"
  "http://www.w3.org/Graphics/SVG/1.1/DTD/svg11.dtd">
<!-- Created with matplotlib (http://matplotlib.org/) -->
<svg height="432pt" version="1.1" viewBox="0 0 576 432" width="576pt" xmlns="http://www.w3.org/2000/svg" xmlns:xlink="http://www.w3.org/1999/xlink">
 <defs>
  <style type="text/css">
*{stroke-linecap:butt;stroke-linejoin:round;}
  </style>
 </defs>
 <g id="figure_1">
  <g id="patch_1">
   <path d="
M0 432
L576 432
L576 0
L0 0
z
" style="fill:#ffffff;"/>
  </g>
  <g id="axes_1">
   <g id="patch_2">
    <path d="
M72 388.8
L518.4 388.8
L518.4 43.2
L72 43.2
z
" style="fill:#ffffff;"/>
   </g>
   <g id="LineCollection_1">
    <defs>
     <path d="
M295.2 -158.4
L295.2 -158.4" id="C0_0_ef56114d07"/>
     <path d="
M305.829 -122.616
L305.829 -182.547" id="C0_1_2cdf866f32"/>
     <path d="
M316.457 -117.445
L316.457 -189.749" id="C0_2_d2dcd1eb52"/>
     <path d="
M327.086 -105.368
L327.086 -197.896" id="C0_3_af520f67cd"/>
     <path d="
M337.714 -112.587
L337.714 -205.307" id="C0_4_a856b834de"/>
     <path d="
M348.343 -108.519
L348.343 -225.969" id="C0_5_29041d053f"/>
     <path d="
M358.971 -104.711
L358.971 -238.157" id="C0_6_7abcc6ce42"/>
     <path d="
M369.6 -96.9881
L369.6 -236.43" id="C0_7_34cbfa9ac9"/>
     <path d="
M380.229 -92.6003
L380.229 -245.119" id="C0_8_c53c01b3a3"/>
     <path d="
M390.857 -96.895
L390.857 -246.079" id="C0_9_5a64c0f8d7"/>
     <path d="
M401.486 -90.4465
L401.486 -238.928" id="C0_a_c90b2be337"/>
     <path d="
M412.114 -85.3971
L412.114 -264.156" id="C0_b_337ebe5583"/>
     <path d="
M422.743 -66.2845
L422.743 -268.857" id="C0_c_87b5c59d42"/>
     <path d="
M433.371 -52.9234
L433.371 -280.29" id="C0_d_19c5b74e37"/>
     <path d="
M444 -57.4401
L444 -274.062" id="C0_e_a7c0180075"/>
     <path d="
M454.629 -68.0399
L454.629 -276.227" id="C0_f_f163cbe5cd"/>
     <path d="
M465.257 -64.4495
L465.257 -268.45" id="C0_10_b552367f89"/>
     <path d="
M475.886 -60.642
L475.886 -275.303" id="C0_11_4965a95a87"/>
     <path d="
M486.514 -55.0379
L486.514 -282.868" id="C0_12_23ea2bddd3"/>
     <path d="
M497.143 -63.1749
L497.143 -284.079" id="C0_13_9001b94fef"/>
     <path d="
M507.771 -60.6306
L507.771 -277.538" id="C0_14_c03c136052"/>
    </defs>
    <g clip-path="url(#p7ff5b81e1d)">
     <use style="fill:none;stroke:#aaaaff;stroke-opacity:0.1;" x="0.0" xlink:href="#C0_0_ef56114d07" y="432.0"/>
    </g>
    <g clip-path="url(#p7ff5b81e1d)">
     <use style="fill:none;stroke:#aaaaff;stroke-opacity:0.1;" x="0.0" xlink:href="#C0_1_2cdf866f32" y="432.0"/>
    </g>
    <g clip-path="url(#p7ff5b81e1d)">
     <use style="fill:none;stroke:#aaaaff;stroke-opacity:0.1;" x="0.0" xlink:href="#C0_2_d2dcd1eb52" y="432.0"/>
    </g>
    <g clip-path="url(#p7ff5b81e1d)">
     <use style="fill:none;stroke:#aaaaff;stroke-opacity:0.1;" x="0.0" xlink:href="#C0_3_af520f67cd" y="432.0"/>
    </g>
    <g clip-path="url(#p7ff5b81e1d)">
     <use style="fill:none;stroke:#aaaaff;stroke-opacity:0.1;" x="0.0" xlink:href="#C0_4_a856b834de" y="432.0"/>
    </g>
    <g clip-path="url(#p7ff5b81e1d)">
     <use style="fill:none;stroke:#aaaaff;stroke-opacity:0.1;" x="0.0" xlink:href="#C0_5_29041d053f" y="432.0"/>
    </g>
    <g clip-path="url(#p7ff5b81e1d)">
     <use style="fill:none;stroke:#aaaaff;stroke-opacity:0.1;" x="0.0" xlink:href="#C0_6_7abcc6ce42" y="432.0"/>
    </g>
    <g clip-path="url(#p7ff5b81e1d)">
     <use style="fill:none;stroke:#aaaaff;stroke-opacity:0.1;" x="0.0" xlink:href="#C0_7_34cbfa9ac9" y="432.0"/>
    </g>
    <g clip-path="url(#p7ff5b81e1d)">
     <use style="fill:none;stroke:#aaaaff;stroke-opacity:0.1;" x="0.0" xlink:href="#C0_8_c53c01b3a3" y="432.0"/>
    </g>
    <g clip-path="url(#p7ff5b81e1d)">
     <use style="fill:none;stroke:#aaaaff;stroke-opacity:0.1;" x="0.0" xlink:href="#C0_9_5a64c0f8d7" y="432.0"/>
    </g>
    <g clip-path="url(#p7ff5b81e1d)">
     <use style="fill:none;stroke:#aaaaff;stroke-opacity:0.1;" x="0.0" xlink:href="#C0_a_c90b2be337" y="432.0"/>
    </g>
    <g clip-path="url(#p7ff5b81e1d)">
     <use style="fill:none;stroke:#aaaaff;stroke-opacity:0.1;" x="0.0" xlink:href="#C0_b_337ebe5583" y="432.0"/>
    </g>
    <g clip-path="url(#p7ff5b81e1d)">
     <use style="fill:none;stroke:#aaaaff;stroke-opacity:0.1;" x="0.0" xlink:href="#C0_c_87b5c59d42" y="432.0"/>
    </g>
    <g clip-path="url(#p7ff5b81e1d)">
     <use style="fill:none;stroke:#aaaaff;stroke-opacity:0.1;" x="0.0" xlink:href="#C0_d_19c5b74e37" y="432.0"/>
    </g>
    <g clip-path="url(#p7ff5b81e1d)">
     <use style="fill:none;stroke:#aaaaff;stroke-opacity:0.1;" x="0.0" xlink:href="#C0_e_a7c0180075" y="432.0"/>
    </g>
    <g clip-path="url(#p7ff5b81e1d)">
     <use style="fill:none;stroke:#aaaaff;stroke-opacity:0.1;" x="0.0" xlink:href="#C0_f_f163cbe5cd" y="432.0"/>
    </g>
    <g clip-path="url(#p7ff5b81e1d)">
     <use style="fill:none;stroke:#aaaaff;stroke-opacity:0.1;" x="0.0" xlink:href="#C0_10_b552367f89" y="432.0"/>
    </g>
    <g clip-path="url(#p7ff5b81e1d)">
     <use style="fill:none;stroke:#aaaaff;stroke-opacity:0.1;" x="0.0" xlink:href="#C0_11_4965a95a87" y="432.0"/>
    </g>
    <g clip-path="url(#p7ff5b81e1d)">
     <use style="fill:none;stroke:#aaaaff;stroke-opacity:0.1;" x="0.0" xlink:href="#C0_12_23ea2bddd3" y="432.0"/>
    </g>
    <g clip-path="url(#p7ff5b81e1d)">
     <use style="fill:none;stroke:#aaaaff;stroke-opacity:0.1;" x="0.0" xlink:href="#C0_13_9001b94fef" y="432.0"/>
    </g>
    <g clip-path="url(#p7ff5b81e1d)">
     <use style="fill:none;stroke:#aaaaff;stroke-opacity:0.1;" x="0.0" xlink:href="#C0_14_c03c136052" y="432.0"/>
    </g>
   </g>
   <g id="line2d_1">
    <path clip-path="url(#p7ff5b81e1d)" d="
M-8856 273.6
M-1 273.6
L577 273.6" style="fill:none;stroke:#000000;stroke-linecap:square;"/>
   </g>
   <g id="line2d_2">
    <defs>
     <path d="
M3 1.83697e-16
L-3 -1.83697e-16" id="m7cf3e0b8d8" style="stroke:#aaaaff;stroke-width:0.5;"/>
    </defs>
    <g clip-path="url(#p7ff5b81e1d)">
     <use style="fill:#aaaaff;opacity:0.1;stroke:#aaaaff;stroke-width:0.5;" x="295.2" xlink:href="#m7cf3e0b8d8" y="273.6"/>
     <use style="fill:#aaaaff;opacity:0.1;stroke:#aaaaff;stroke-width:0.5;" x="305.828571429" xlink:href="#m7cf3e0b8d8" y="309.383607828"/>
     <use style="fill:#aaaaff;opacity:0.1;stroke:#aaaaff;stroke-width:0.5;" x="316.457142857" xlink:href="#m7cf3e0b8d8" y="314.554996289"/>
     <use style="fill:#aaaaff;opacity:0.1;stroke:#aaaaff;stroke-width:0.5;" x="327.085714286" xlink:href="#m7cf3e0b8d8" y="326.63151006"/>
     <use style="fill:#aaaaff;opacity:0.1;stroke:#aaaaff;stroke-width:0.5;" x="337.714285714" xlink:href="#m7cf3e0b8d8" y="319.412665866"/>
     <use style="fill:#aaaaff;opacity:0.1;stroke:#aaaaff;stroke-width:0.5;" x="348.342857143" xlink:href="#m7cf3e0b8d8" y="323.480500385"/>
     <use style="fill:#aaaaff;opacity:0.1;stroke:#aaaaff;stroke-width:0.5;" x="358.971428571" xlink:href="#m7cf3e0b8d8" y="327.288859168"/>
     <use style="fill:#aaaaff;opacity:0.1;stroke:#aaaaff;stroke-width:0.5;" x="369.6" xlink:href="#m7cf3e0b8d8" y="335.011948933"/>
     <use style="fill:#aaaaff;opacity:0.1;stroke:#aaaaff;stroke-width:0.5;" x="380.228571429" xlink:href="#m7cf3e0b8d8" y="339.399675015"/>
     <use style="fill:#aaaaff;opacity:0.1;stroke:#aaaaff;stroke-width:0.5;" x="390.857142857" xlink:href="#m7cf3e0b8d8" y="335.104980426"/>
     <use style="fill:#aaaaff;opacity:0.1;stroke:#aaaaff;stroke-width:0.5;" x="401.485714286" xlink:href="#m7cf3e0b8d8" y="341.553477816"/>
     <use style="fill:#aaaaff;opacity:0.1;stroke:#aaaaff;stroke-width:0.5;" x="412.114285714" xlink:href="#m7cf3e0b8d8" y="346.602928396"/>
     <use style="fill:#aaaaff;opacity:0.1;stroke:#aaaaff;stroke-width:0.5;" x="422.742857143" xlink:href="#m7cf3e0b8d8" y="365.715540463"/>
     <use style="fill:#aaaaff;opacity:0.1;stroke:#aaaaff;stroke-width:0.5;" x="433.371428571" xlink:href="#m7cf3e0b8d8" y="379.076627996"/>
     <use style="fill:#aaaaff;opacity:0.1;stroke:#aaaaff;stroke-width:0.5;" x="444.0" xlink:href="#m7cf3e0b8d8" y="374.559926318"/>
     <use style="fill:#aaaaff;opacity:0.1;stroke:#aaaaff;stroke-width:0.5;" x="454.628571429" xlink:href="#m7cf3e0b8d8" y="363.960079812"/>
     <use style="fill:#aaaaff;opacity:0.1;stroke:#aaaaff;stroke-width:0.5;" x="465.257142857" xlink:href="#m7cf3e0b8d8" y="367.550510662"/>
     <use style="fill:#aaaaff;opacity:0.1;stroke:#aaaaff;stroke-width:0.5;" x="475.885714286" xlink:href="#m7cf3e0b8d8" y="371.357975504"/>
     <use style="fill:#aaaaff;opacity:0.1;stroke:#aaaaff;stroke-width:0.5;" x="486.514285714" xlink:href="#m7cf3e0b8d8" y="376.962087599"/>
     <use style="fill:#aaaaff;opacity:0.1;stroke:#aaaaff;stroke-width:0.5;" x="497.142857143" xlink:href="#m7cf3e0b8d8" y="368.82513211"/>
     <use style="fill:#aaaaff;opacity:0.1;stroke:#aaaaff;stroke-width:0.5;" x="507.771428571" xlink:href="#m7cf3e0b8d8" y="371.369415923"/>
    </g>
   </g>
   <g id="line2d_3">
    <g clip-path="url(#p7ff5b81e1d)">
     <use style="fill:#aaaaff;opacity:0.1;stroke:#aaaaff;stroke-width:0.5;" x="295.2" xlink:href="#m7cf3e0b8d8" y="273.6"/>
     <use style="fill:#aaaaff;opacity:0.1;stroke:#aaaaff;stroke-width:0.5;" x="305.828571429" xlink:href="#m7cf3e0b8d8" y="249.452625507"/>
     <use style="fill:#aaaaff;opacity:0.1;stroke:#aaaaff;stroke-width:0.5;" x="316.457142857" xlink:href="#m7cf3e0b8d8" y="242.250952636"/>
     <use style="fill:#aaaaff;opacity:0.1;stroke:#aaaaff;stroke-width:0.5;" x="327.085714286" xlink:href="#m7cf3e0b8d8" y="234.104029905"/>
     <use style="fill:#aaaaff;opacity:0.1;stroke:#aaaaff;stroke-width:0.5;" x="337.714285714" xlink:href="#m7cf3e0b8d8" y="226.692928907"/>
     <use style="fill:#aaaaff;opacity:0.1;stroke:#aaaaff;stroke-width:0.5;" x="348.342857143" xlink:href="#m7cf3e0b8d8" y="206.031035731"/>
     <use style="fill:#aaaaff;opacity:0.1;stroke:#aaaaff;stroke-width:0.5;" x="358.971428571" xlink:href="#m7cf3e0b8d8" y="193.842828298"/>
     <use style="fill:#aaaaff;opacity:0.1;stroke:#aaaaff;stroke-width:0.5;" x="369.6" xlink:href="#m7cf3e0b8d8" y="195.569746568"/>
     <use style="fill:#aaaaff;opacity:0.1;stroke:#aaaaff;stroke-width:0.5;" x="380.228571429" xlink:href="#m7cf3e0b8d8" y="186.880602592"/>
     <use style="fill:#aaaaff;opacity:0.1;stroke:#aaaaff;stroke-width:0.5;" x="390.857142857" xlink:href="#m7cf3e0b8d8" y="185.920789211"/>
     <use style="fill:#aaaaff;opacity:0.1;stroke:#aaaaff;stroke-width:0.5;" x="401.485714286" xlink:href="#m7cf3e0b8d8" y="193.071530687"/>
     <use style="fill:#aaaaff;opacity:0.1;stroke:#aaaaff;stroke-width:0.5;" x="412.114285714" xlink:href="#m7cf3e0b8d8" y="167.844300633"/>
     <use style="fill:#aaaaff;opacity:0.1;stroke:#aaaaff;stroke-width:0.5;" x="422.742857143" xlink:href="#m7cf3e0b8d8" y="163.142878591"/>
     <use style="fill:#aaaaff;opacity:0.1;stroke:#aaaaff;stroke-width:0.5;" x="433.371428571" xlink:href="#m7cf3e0b8d8" y="151.71003015"/>
     <use style="fill:#aaaaff;opacity:0.1;stroke:#aaaaff;stroke-width:0.5;" x="444.0" xlink:href="#m7cf3e0b8d8" y="157.938390857"/>
     <use style="fill:#aaaaff;opacity:0.1;stroke:#aaaaff;stroke-width:0.5;" x="454.628571429" xlink:href="#m7cf3e0b8d8" y="155.773448843"/>
     <use style="fill:#aaaaff;opacity:0.1;stroke:#aaaaff;stroke-width:0.5;" x="465.257142857" xlink:href="#m7cf3e0b8d8" y="163.550404884"/>
     <use style="fill:#aaaaff;opacity:0.1;stroke:#aaaaff;stroke-width:0.5;" x="475.885714286" xlink:href="#m7cf3e0b8d8" y="156.697346044"/>
     <use style="fill:#aaaaff;opacity:0.1;stroke:#aaaaff;stroke-width:0.5;" x="486.514285714" xlink:href="#m7cf3e0b8d8" y="149.132193787"/>
     <use style="fill:#aaaaff;opacity:0.1;stroke:#aaaaff;stroke-width:0.5;" x="497.142857143" xlink:href="#m7cf3e0b8d8" y="147.921492806"/>
     <use style="fill:#aaaaff;opacity:0.1;stroke:#aaaaff;stroke-width:0.5;" x="507.771428571" xlink:href="#m7cf3e0b8d8" y="154.462335039"/>
    </g>
   </g>
   <g id="line2d_4">
    <path clip-path="url(#p7ff5b81e1d)" d="
M295.2 273.6
L305.829 279.418
L316.457 278.403
L327.086 280.368
L337.714 273.053
L348.343 264.756
L358.971 260.566
L369.6 265.291
L380.229 263.14
L390.857 260.513
L401.486 267.313
L412.114 257.224
L422.743 264.429
L433.371 265.393
L444 266.249
L454.629 259.867
L465.257 265.55
L475.886 264.028
L486.514 263.047
L497.143 258.373
L507.771 262.916" style="fill:none;opacity:0.1;stroke:#0000ff;stroke-linecap:square;"/>
   </g>
   <g id="line2d_5">
    <path clip-path="url(#p7ff5b81e1d)" d="
M82.6286 48.9474
L93.2571 66.1371
L103.886 72.4389
L114.514 76.174
L125.143 71.9652
L135.771 75.7355
L146.4 94.0524
L157.029 94.258
L167.657 109.433
L178.286 113.624
L188.914 122.6
L199.543 123.418
L210.171 140.746
L220.8 149.333
L231.429 138.566
L242.057 152.598
L252.686 148.249
L263.314 147.745
L273.943 157.3
L284.571 154.508
L295.2 273.6
L305.829 279.418
L316.457 278.403
L327.086 280.368
L337.714 273.053
L348.343 264.756
L358.971 260.566
L369.6 265.291
L380.229 263.14
L390.857 260.513
L401.486 267.313
L412.114 257.224
L422.743 264.429
L433.371 265.393
L444 266.249
L454.629 259.867
L465.257 265.55
L475.886 264.028
L486.514 263.047
L497.143 258.373
L507.771 262.916" style="fill:none;stroke:#0000ff;stroke-linecap:square;stroke-width:3;"/>
   </g>
   <g id="patch_3">
    <path d="
M72 43.2
L518.4 43.2" style="fill:none;stroke:#000000;stroke-linecap:square;stroke-linejoin:miter;"/>
   </g>
   <g id="patch_4">
    <path d="
M518.4 388.8
L518.4 43.2" style="fill:none;stroke:#000000;stroke-linecap:square;stroke-linejoin:miter;"/>
   </g>
   <g id="patch_5">
    <path d="
M72 388.8
L518.4 388.8" style="fill:none;stroke:#000000;stroke-linecap:square;stroke-linejoin:miter;"/>
   </g>
   <g id="patch_6">
    <path d="
M72 388.8
L72 43.2" style="fill:none;stroke:#000000;stroke-linecap:square;stroke-linejoin:miter;"/>
   </g>
   <g id="matplotlib.axis_1">
    <g id="xtick_1">
     <g id="line2d_6">
      <defs>
       <path d="
M0 0
L0 -4" id="m93b0483c22" style="stroke:#000000;stroke-width:0.5;"/>
      </defs>
      <g>
       <use style="stroke:#000000;stroke-width:0.5;" x="82.6285714286" xlink:href="#m93b0483c22" y="388.8"/>
      </g>
     </g>
     <g id="line2d_7">
      <defs>
       <path d="
M0 0
L0 4" id="m741efc42ff" style="stroke:#000000;stroke-width:0.5;"/>
      </defs>
      <g>
       <use style="stroke:#000000;stroke-width:0.5;" x="82.6285714286" xlink:href="#m741efc42ff" y="43.2"/>
      </g>
     </g>
     <g id="text_1">
      <!-- −20 -->
      <defs>
       <path d="
M10.5938 35.5
L73.1875 35.5
L73.1875 27.2031
L10.5938 27.2031
z
" id="BitstreamVeraSans-Roman-2212"/>
       <path d="
M19.1875 8.29688
L53.6094 8.29688
L53.6094 0
L7.32812 0
L7.32812 8.29688
Q12.9375 14.1094 22.625 23.8906
Q32.3281 33.6875 34.8125 36.5312
Q39.5469 41.8438 41.4219 45.5312
Q43.3125 49.2188 43.3125 52.7812
Q43.3125 58.5938 39.2344 62.25
Q35.1562 65.9219 28.6094 65.9219
Q23.9688 65.9219 18.8125 64.3125
Q13.6719 62.7031 7.8125 59.4219
L7.8125 69.3906
Q13.7656 71.7812 18.9375 73
Q24.125 74.2188 28.4219 74.2188
Q39.75 74.2188 46.4844 68.5469
Q53.2188 62.8906 53.2188 53.4219
Q53.2188 48.9219 51.5312 44.8906
Q49.8594 40.875 45.4062 35.4062
Q44.1875 33.9844 37.6406 27.2188
Q31.1094 20.4531 19.1875 8.29688" id="BitstreamVeraSans-Roman-32"/>
       <path d="
M31.7812 66.4062
Q24.1719 66.4062 20.3281 58.9062
Q16.5 51.4219 16.5 36.375
Q16.5 21.3906 20.3281 13.8906
Q24.1719 6.39062 31.7812 6.39062
Q39.4531 6.39062 43.2812 13.8906
Q47.125 21.3906 47.125 36.375
Q47.125 51.4219 43.2812 58.9062
Q39.4531 66.4062 31.7812 66.4062
M31.7812 74.2188
Q44.0469 74.2188 50.5156 64.5156
Q56.9844 54.8281 56.9844 36.375
Q56.9844 17.9688 50.5156 8.26562
Q44.0469 -1.42188 31.7812 -1.42188
Q19.5312 -1.42188 13.0625 8.26562
Q6.59375 17.9688 6.59375 36.375
Q6.59375 54.8281 13.0625 64.5156
Q19.5312 74.2188 31.7812 74.2188" id="BitstreamVeraSans-Roman-30"/>
      </defs>
      <g transform="translate(70.9998214286 401.918125)scale(0.12 -0.12)">
       <use xlink:href="#BitstreamVeraSans-Roman-2212"/>
       <use x="83.7890625" xlink:href="#BitstreamVeraSans-Roman-32"/>
       <use x="147.412109375" xlink:href="#BitstreamVeraSans-Roman-30"/>
      </g>
     </g>
    </g>
    <g id="xtick_2">
     <g id="line2d_8">
      <g>
       <use style="stroke:#000000;stroke-width:0.5;" x="188.914285714" xlink:href="#m93b0483c22" y="388.8"/>
      </g>
     </g>
     <g id="line2d_9">
      <g>
       <use style="stroke:#000000;stroke-width:0.5;" x="188.914285714" xlink:href="#m741efc42ff" y="43.2"/>
      </g>
     </g>
     <g id="text_2">
      <!-- −10 -->
      <defs>
       <path d="
M12.4062 8.29688
L28.5156 8.29688
L28.5156 63.9219
L10.9844 60.4062
L10.9844 69.3906
L28.4219 72.9062
L38.2812 72.9062
L38.2812 8.29688
L54.3906 8.29688
L54.3906 0
L12.4062 0
z
" id="BitstreamVeraSans-Roman-31"/>
      </defs>
      <g transform="translate(177.285535714 401.918125)scale(0.12 -0.12)">
       <use xlink:href="#BitstreamVeraSans-Roman-2212"/>
       <use x="83.7890625" xlink:href="#BitstreamVeraSans-Roman-31"/>
       <use x="147.412109375" xlink:href="#BitstreamVeraSans-Roman-30"/>
      </g>
     </g>
    </g>
    <g id="xtick_3">
     <g id="line2d_10">
      <g>
       <use style="stroke:#000000;stroke-width:0.5;" x="295.2" xlink:href="#m93b0483c22" y="388.8"/>
      </g>
     </g>
     <g id="line2d_11">
      <g>
       <use style="stroke:#000000;stroke-width:0.5;" x="295.2" xlink:href="#m741efc42ff" y="43.2"/>
      </g>
     </g>
     <g id="text_3">
      <!-- 0 -->
      <g transform="translate(292.1765625 401.918125)scale(0.12 -0.12)">
       <use xlink:href="#BitstreamVeraSans-Roman-30"/>
      </g>
     </g>
    </g>
    <g id="xtick_4">
     <g id="line2d_12">
      <g>
       <use style="stroke:#000000;stroke-width:0.5;" x="401.485714286" xlink:href="#m93b0483c22" y="388.8"/>
      </g>
     </g>
     <g id="line2d_13">
      <g>
       <use style="stroke:#000000;stroke-width:0.5;" x="401.485714286" xlink:href="#m741efc42ff" y="43.2"/>
      </g>
     </g>
     <g id="text_4">
      <!-- 10 -->
      <g transform="translate(394.908214286 401.918125)scale(0.12 -0.12)">
       <use xlink:href="#BitstreamVeraSans-Roman-31"/>
       <use x="63.623046875" xlink:href="#BitstreamVeraSans-Roman-30"/>
      </g>
     </g>
    </g>
    <g id="xtick_5">
     <g id="line2d_14">
      <g>
       <use style="stroke:#000000;stroke-width:0.5;" x="507.771428571" xlink:href="#m93b0483c22" y="388.8"/>
      </g>
     </g>
     <g id="line2d_15">
      <g>
       <use style="stroke:#000000;stroke-width:0.5;" x="507.771428571" xlink:href="#m741efc42ff" y="43.2"/>
      </g>
     </g>
     <g id="text_5">
      <!-- 20 -->
      <g transform="translate(500.974553571 401.918125)scale(0.12 -0.12)">
       <use xlink:href="#BitstreamVeraSans-Roman-32"/>
       <use x="63.623046875" xlink:href="#BitstreamVeraSans-Roman-30"/>
      </g>
     </g>
    </g>
    <g id="text_6">
     <!-- Days -->
     <defs>
      <path d="
M19.6719 64.7969
L19.6719 8.10938
L31.5938 8.10938
Q46.6875 8.10938 53.6875 14.9375
Q60.6875 21.7812 60.6875 36.5312
Q60.6875 51.1719 53.6875 57.9844
Q46.6875 64.7969 31.5938 64.7969
z

M9.8125 72.9062
L30.0781 72.9062
Q51.2656 72.9062 61.1719 64.0938
Q71.0938 55.2812 71.0938 36.5312
Q71.0938 17.6719 61.125 8.82812
Q51.1719 0 30.0781 0
L9.8125 0
z
" id="BitstreamVeraSans-Roman-44"/>
      <path d="
M34.2812 27.4844
Q23.3906 27.4844 19.1875 25
Q14.9844 22.5156 14.9844 16.5
Q14.9844 11.7188 18.1406 8.90625
Q21.2969 6.10938 26.7031 6.10938
Q34.1875 6.10938 38.7031 11.4062
Q43.2188 16.7031 43.2188 25.4844
L43.2188 27.4844
z

M52.2031 31.2031
L52.2031 0
L43.2188 0
L43.2188 8.29688
Q40.1406 3.32812 35.5469 0.953125
Q30.9531 -1.42188 24.3125 -1.42188
Q15.9219 -1.42188 10.9531 3.29688
Q6 8.01562 6 15.9219
Q6 25.1406 12.1719 29.8281
Q18.3594 34.5156 30.6094 34.5156
L43.2188 34.5156
L43.2188 35.4062
Q43.2188 41.6094 39.1406 45
Q35.0625 48.3906 27.6875 48.3906
Q23 48.3906 18.5469 47.2656
Q14.1094 46.1406 10.0156 43.8906
L10.0156 52.2031
Q14.9375 54.1094 19.5781 55.0469
Q24.2188 56 28.6094 56
Q40.4844 56 46.3438 49.8438
Q52.2031 43.7031 52.2031 31.2031" id="BitstreamVeraSans-Roman-61"/>
      <path d="
M44.2812 53.0781
L44.2812 44.5781
Q40.4844 46.5312 36.375 47.5
Q32.2812 48.4844 27.875 48.4844
Q21.1875 48.4844 17.8438 46.4375
Q14.5 44.3906 14.5 40.2812
Q14.5 37.1562 16.8906 35.375
Q19.2812 33.5938 26.5156 31.9844
L29.5938 31.2969
Q39.1562 29.25 43.1875 25.5156
Q47.2188 21.7812 47.2188 15.0938
Q47.2188 7.46875 41.1875 3.01562
Q35.1562 -1.42188 24.6094 -1.42188
Q20.2188 -1.42188 15.4531 -0.5625
Q10.6875 0.296875 5.42188 2
L5.42188 11.2812
Q10.4062 8.6875 15.2344 7.39062
Q20.0625 6.10938 24.8125 6.10938
Q31.1562 6.10938 34.5625 8.28125
Q37.9844 10.4531 37.9844 14.4062
Q37.9844 18.0625 35.5156 20.0156
Q33.0625 21.9688 24.7031 23.7812
L21.5781 24.5156
Q13.2344 26.2656 9.51562 29.9062
Q5.8125 33.5469 5.8125 39.8906
Q5.8125 47.6094 11.2812 51.7969
Q16.75 56 26.8125 56
Q31.7812 56 36.1719 55.2656
Q40.5781 54.5469 44.2812 53.0781" id="BitstreamVeraSans-Roman-73"/>
      <path d="
M32.1719 -5.07812
Q28.375 -14.8438 24.75 -17.8125
Q21.1406 -20.7969 15.0938 -20.7969
L7.90625 -20.7969
L7.90625 -13.2812
L13.1875 -13.2812
Q16.8906 -13.2812 18.9375 -11.5156
Q21 -9.76562 23.4844 -3.21875
L25.0938 0.875
L2.98438 54.6875
L12.5 54.6875
L29.5938 11.9219
L46.6875 54.6875
L56.2031 54.6875
z
" id="BitstreamVeraSans-Roman-79"/>
     </defs>
     <g transform="translate(281.1075 418.531875)scale(0.12 -0.12)">
      <use xlink:href="#BitstreamVeraSans-Roman-44"/>
      <use x="77.001953125" xlink:href="#BitstreamVeraSans-Roman-61"/>
      <use x="138.28125" xlink:href="#BitstreamVeraSans-Roman-79"/>
      <use x="197.4609375" xlink:href="#BitstreamVeraSans-Roman-73"/>
     </g>
    </g>
   </g>
   <g id="matplotlib.axis_2">
    <g id="ytick_1">
     <g id="line2d_16">
      <defs>
       <path d="
M0 0
L4 0" id="m728421d6d4" style="stroke:#000000;stroke-width:0.5;"/>
      </defs>
      <g>
       <use style="stroke:#000000;stroke-width:0.5;" x="72.0" xlink:href="#m728421d6d4" y="388.8"/>
      </g>
     </g>
     <g id="line2d_17">
      <defs>
       <path d="
M0 0
L-4 0" id="mcb0005524f" style="stroke:#000000;stroke-width:0.5;"/>
      </defs>
      <g>
       <use style="stroke:#000000;stroke-width:0.5;" x="518.4" xlink:href="#mcb0005524f" y="388.8"/>
      </g>
     </g>
     <g id="text_7">
      <!-- 0.6 -->
      <defs>
       <path d="
M33.0156 40.375
Q26.375 40.375 22.4844 35.8281
Q18.6094 31.2969 18.6094 23.3906
Q18.6094 15.5312 22.4844 10.9531
Q26.375 6.39062 33.0156 6.39062
Q39.6562 6.39062 43.5312 10.9531
Q47.4062 15.5312 47.4062 23.3906
Q47.4062 31.2969 43.5312 35.8281
Q39.6562 40.375 33.0156 40.375
M52.5938 71.2969
L52.5938 62.3125
Q48.875 64.0625 45.0938 64.9844
Q41.3125 65.9219 37.5938 65.9219
Q27.8281 65.9219 22.6719 59.3281
Q17.5312 52.7344 16.7969 39.4062
Q19.6719 43.6562 24.0156 45.9219
Q28.375 48.1875 33.5938 48.1875
Q44.5781 48.1875 50.9531 41.5156
Q57.3281 34.8594 57.3281 23.3906
Q57.3281 12.1562 50.6875 5.35938
Q44.0469 -1.42188 33.0156 -1.42188
Q20.3594 -1.42188 13.6719 8.26562
Q6.98438 17.9688 6.98438 36.375
Q6.98438 53.6562 15.1875 63.9375
Q23.3906 74.2188 37.2031 74.2188
Q40.9219 74.2188 44.7031 73.4844
Q48.4844 72.75 52.5938 71.2969" id="BitstreamVeraSans-Roman-36"/>
       <path d="
M10.6875 12.4062
L21 12.4062
L21 0
L10.6875 0
z
" id="BitstreamVeraSans-Roman-2e"/>
      </defs>
      <g transform="translate(50.463125 392.11125)scale(0.12 -0.12)">
       <use xlink:href="#BitstreamVeraSans-Roman-30"/>
       <use x="63.623046875" xlink:href="#BitstreamVeraSans-Roman-2e"/>
       <use x="95.41015625" xlink:href="#BitstreamVeraSans-Roman-36"/>
      </g>
     </g>
    </g>
    <g id="ytick_2">
     <g id="line2d_18">
      <g>
       <use style="stroke:#000000;stroke-width:0.5;" x="72.0" xlink:href="#m728421d6d4" y="331.2"/>
      </g>
     </g>
     <g id="line2d_19">
      <g>
       <use style="stroke:#000000;stroke-width:0.5;" x="518.4" xlink:href="#mcb0005524f" y="331.2"/>
      </g>
     </g>
     <g id="text_8">
      <!-- 0.8 -->
      <defs>
       <path d="
M31.7812 34.625
Q24.75 34.625 20.7188 30.8594
Q16.7031 27.0938 16.7031 20.5156
Q16.7031 13.9219 20.7188 10.1562
Q24.75 6.39062 31.7812 6.39062
Q38.8125 6.39062 42.8594 10.1719
Q46.9219 13.9688 46.9219 20.5156
Q46.9219 27.0938 42.8906 30.8594
Q38.875 34.625 31.7812 34.625
M21.9219 38.8125
Q15.5781 40.375 12.0312 44.7188
Q8.5 49.0781 8.5 55.3281
Q8.5 64.0625 14.7188 69.1406
Q20.9531 74.2188 31.7812 74.2188
Q42.6719 74.2188 48.875 69.1406
Q55.0781 64.0625 55.0781 55.3281
Q55.0781 49.0781 51.5312 44.7188
Q48 40.375 41.7031 38.8125
Q48.8281 37.1562 52.7969 32.3125
Q56.7812 27.4844 56.7812 20.5156
Q56.7812 9.90625 50.3125 4.23438
Q43.8438 -1.42188 31.7812 -1.42188
Q19.7344 -1.42188 13.25 4.23438
Q6.78125 9.90625 6.78125 20.5156
Q6.78125 27.4844 10.7812 32.3125
Q14.7969 37.1562 21.9219 38.8125
M18.3125 54.3906
Q18.3125 48.7344 21.8438 45.5625
Q25.3906 42.3906 31.7812 42.3906
Q38.1406 42.3906 41.7188 45.5625
Q45.3125 48.7344 45.3125 54.3906
Q45.3125 60.0625 41.7188 63.2344
Q38.1406 66.4062 31.7812 66.4062
Q25.3906 66.4062 21.8438 63.2344
Q18.3125 60.0625 18.3125 54.3906" id="BitstreamVeraSans-Roman-38"/>
      </defs>
      <g transform="translate(50.52875 334.51125)scale(0.12 -0.12)">
       <use xlink:href="#BitstreamVeraSans-Roman-30"/>
       <use x="63.623046875" xlink:href="#BitstreamVeraSans-Roman-2e"/>
       <use x="95.41015625" xlink:href="#BitstreamVeraSans-Roman-38"/>
      </g>
     </g>
    </g>
    <g id="ytick_3">
     <g id="line2d_20">
      <g>
       <use style="stroke:#000000;stroke-width:0.5;" x="72.0" xlink:href="#m728421d6d4" y="273.6"/>
      </g>
     </g>
     <g id="line2d_21">
      <g>
       <use style="stroke:#000000;stroke-width:0.5;" x="518.4" xlink:href="#mcb0005524f" y="273.6"/>
      </g>
     </g>
     <g id="text_9">
      <!-- 1.0 -->
      <g transform="translate(51.03125 276.91125)scale(0.12 -0.12)">
       <use xlink:href="#BitstreamVeraSans-Roman-31"/>
       <use x="63.623046875" xlink:href="#BitstreamVeraSans-Roman-2e"/>
       <use x="95.41015625" xlink:href="#BitstreamVeraSans-Roman-30"/>
      </g>
     </g>
    </g>
    <g id="ytick_4">
     <g id="line2d_22">
      <g>
       <use style="stroke:#000000;stroke-width:0.5;" x="72.0" xlink:href="#m728421d6d4" y="216.0"/>
      </g>
     </g>
     <g id="line2d_23">
      <g>
       <use style="stroke:#000000;stroke-width:0.5;" x="518.4" xlink:href="#mcb0005524f" y="216.0"/>
      </g>
     </g>
     <g id="text_10">
      <!-- 1.2 -->
      <g transform="translate(51.43625 219.31125)scale(0.12 -0.12)">
       <use xlink:href="#BitstreamVeraSans-Roman-31"/>
       <use x="63.623046875" xlink:href="#BitstreamVeraSans-Roman-2e"/>
       <use x="95.41015625" xlink:href="#BitstreamVeraSans-Roman-32"/>
      </g>
     </g>
    </g>
    <g id="ytick_5">
     <g id="line2d_24">
      <g>
       <use style="stroke:#000000;stroke-width:0.5;" x="72.0" xlink:href="#m728421d6d4" y="158.4"/>
      </g>
     </g>
     <g id="line2d_25">
      <g>
       <use style="stroke:#000000;stroke-width:0.5;" x="518.4" xlink:href="#mcb0005524f" y="158.4"/>
      </g>
     </g>
     <g id="text_11">
      <!-- 1.4 -->
      <defs>
       <path d="
M37.7969 64.3125
L12.8906 25.3906
L37.7969 25.3906
z

M35.2031 72.9062
L47.6094 72.9062
L47.6094 25.3906
L58.0156 25.3906
L58.0156 17.1875
L47.6094 17.1875
L47.6094 0
L37.7969 0
L37.7969 17.1875
L4.89062 17.1875
L4.89062 26.7031
z
" id="BitstreamVeraSans-Roman-34"/>
      </defs>
      <g transform="translate(50.9075 161.71125)scale(0.12 -0.12)">
       <use xlink:href="#BitstreamVeraSans-Roman-31"/>
       <use x="63.623046875" xlink:href="#BitstreamVeraSans-Roman-2e"/>
       <use x="95.41015625" xlink:href="#BitstreamVeraSans-Roman-34"/>
      </g>
     </g>
    </g>
    <g id="ytick_6">
     <g id="line2d_26">
      <g>
       <use style="stroke:#000000;stroke-width:0.5;" x="72.0" xlink:href="#m728421d6d4" y="100.8"/>
      </g>
     </g>
     <g id="line2d_27">
      <g>
       <use style="stroke:#000000;stroke-width:0.5;" x="518.4" xlink:href="#mcb0005524f" y="100.8"/>
      </g>
     </g>
     <g id="text_12">
      <!-- 1.6 -->
      <g transform="translate(50.99 104.11125)scale(0.12 -0.12)">
       <use xlink:href="#BitstreamVeraSans-Roman-31"/>
       <use x="63.623046875" xlink:href="#BitstreamVeraSans-Roman-2e"/>
       <use x="95.41015625" xlink:href="#BitstreamVeraSans-Roman-36"/>
      </g>
     </g>
    </g>
    <g id="ytick_7">
     <g id="line2d_28">
      <g>
       <use style="stroke:#000000;stroke-width:0.5;" x="72.0" xlink:href="#m728421d6d4" y="43.2"/>
      </g>
     </g>
     <g id="line2d_29">
      <g>
       <use style="stroke:#000000;stroke-width:0.5;" x="518.4" xlink:href="#mcb0005524f" y="43.2"/>
      </g>
     </g>
     <g id="text_13">
      <!-- 1.8 -->
      <g transform="translate(51.055625 46.51125)scale(0.12 -0.12)">
       <use xlink:href="#BitstreamVeraSans-Roman-31"/>
       <use x="63.623046875" xlink:href="#BitstreamVeraSans-Roman-2e"/>
       <use x="95.41015625" xlink:href="#BitstreamVeraSans-Roman-38"/>
      </g>
     </g>
    </g>
    <g id="text_14">
     <!-- Cumulative Returns -->
     <defs>
      <path id="BitstreamVeraSans-Roman-20"/>
      <path d="
M54.8906 33.0156
L54.8906 0
L45.9062 0
L45.9062 32.7188
Q45.9062 40.4844 42.875 44.3281
Q39.8438 48.1875 33.7969 48.1875
Q26.5156 48.1875 22.3125 43.5469
Q18.1094 38.9219 18.1094 30.9062
L18.1094 0
L9.07812 0
L9.07812 54.6875
L18.1094 54.6875
L18.1094 46.1875
Q21.3438 51.125 25.7031 53.5625
Q30.0781 56 35.7969 56
Q45.2188 56 50.0469 50.1719
Q54.8906 44.3438 54.8906 33.0156" id="BitstreamVeraSans-Roman-6e"/>
      <path d="
M52 44.1875
Q55.375 50.25 60.0625 53.125
Q64.75 56 71.0938 56
Q79.6406 56 84.2812 50.0156
Q88.9219 44.0469 88.9219 33.0156
L88.9219 0
L79.8906 0
L79.8906 32.7188
Q79.8906 40.5781 77.0938 44.375
Q74.3125 48.1875 68.6094 48.1875
Q61.625 48.1875 57.5625 43.5469
Q53.5156 38.9219 53.5156 30.9062
L53.5156 0
L44.4844 0
L44.4844 32.7188
Q44.4844 40.625 41.7031 44.4062
Q38.9219 48.1875 33.1094 48.1875
Q26.2188 48.1875 22.1562 43.5312
Q18.1094 38.875 18.1094 30.9062
L18.1094 0
L9.07812 0
L9.07812 54.6875
L18.1094 54.6875
L18.1094 46.1875
Q21.1875 51.2188 25.4844 53.6094
Q29.7812 56 35.6875 56
Q41.6562 56 45.8281 52.9688
Q50 49.9531 52 44.1875" id="BitstreamVeraSans-Roman-6d"/>
      <path d="
M9.42188 75.9844
L18.4062 75.9844
L18.4062 0
L9.42188 0
z
" id="BitstreamVeraSans-Roman-6c"/>
      <path d="
M56.2031 29.5938
L56.2031 25.2031
L14.8906 25.2031
Q15.4844 15.9219 20.4844 11.0625
Q25.4844 6.20312 34.4219 6.20312
Q39.5938 6.20312 44.4531 7.46875
Q49.3125 8.73438 54.1094 11.2812
L54.1094 2.78125
Q49.2656 0.734375 44.1875 -0.34375
Q39.1094 -1.42188 33.8906 -1.42188
Q20.7969 -1.42188 13.1562 6.1875
Q5.51562 13.8125 5.51562 26.8125
Q5.51562 40.2344 12.7656 48.1094
Q20.0156 56 32.3281 56
Q43.3594 56 49.7812 48.8906
Q56.2031 41.7969 56.2031 29.5938
M47.2188 32.2344
Q47.125 39.5938 43.0938 43.9844
Q39.0625 48.3906 32.4219 48.3906
Q24.9062 48.3906 20.3906 44.1406
Q15.875 39.8906 15.1875 32.1719
z
" id="BitstreamVeraSans-Roman-65"/>
      <path d="
M44.3906 34.1875
Q47.5625 33.1094 50.5625 29.5938
Q53.5625 26.0781 56.5938 19.9219
L66.6094 0
L56 0
L46.6875 18.7031
Q43.0625 26.0312 39.6719 28.4219
Q36.2812 30.8125 30.4219 30.8125
L19.6719 30.8125
L19.6719 0
L9.8125 0
L9.8125 72.9062
L32.0781 72.9062
Q44.5781 72.9062 50.7344 67.6719
Q56.8906 62.4531 56.8906 51.9062
Q56.8906 45.0156 53.6875 40.4688
Q50.4844 35.9375 44.3906 34.1875
M19.6719 64.7969
L19.6719 38.9219
L32.0781 38.9219
Q39.2031 38.9219 42.8438 42.2188
Q46.4844 45.5156 46.4844 51.9062
Q46.4844 58.2969 42.8438 61.5469
Q39.2031 64.7969 32.0781 64.7969
z
" id="BitstreamVeraSans-Roman-52"/>
      <path d="
M64.4062 67.2812
L64.4062 56.8906
Q59.4219 61.5312 53.7812 63.8125
Q48.1406 66.1094 41.7969 66.1094
Q29.2969 66.1094 22.6562 58.4688
Q16.0156 50.8281 16.0156 36.375
Q16.0156 21.9688 22.6562 14.3281
Q29.2969 6.6875 41.7969 6.6875
Q48.1406 6.6875 53.7812 8.98438
Q59.4219 11.2812 64.4062 15.9219
L64.4062 5.60938
Q59.2344 2.09375 53.4375 0.328125
Q47.6562 -1.42188 41.2188 -1.42188
Q24.6562 -1.42188 15.125 8.70312
Q5.60938 18.8438 5.60938 36.375
Q5.60938 53.9531 15.125 64.0781
Q24.6562 74.2188 41.2188 74.2188
Q47.75 74.2188 53.5312 72.4844
Q59.3281 70.75 64.4062 67.2812" id="BitstreamVeraSans-Roman-43"/>
      <path d="
M2.98438 54.6875
L12.5 54.6875
L29.5938 8.79688
L46.6875 54.6875
L56.2031 54.6875
L35.6875 0
L23.4844 0
z
" id="BitstreamVeraSans-Roman-76"/>
      <path d="
M9.42188 54.6875
L18.4062 54.6875
L18.4062 0
L9.42188 0
z

M9.42188 75.9844
L18.4062 75.9844
L18.4062 64.5938
L9.42188 64.5938
z
" id="BitstreamVeraSans-Roman-69"/>
      <path d="
M18.3125 70.2188
L18.3125 54.6875
L36.8125 54.6875
L36.8125 47.7031
L18.3125 47.7031
L18.3125 18.0156
Q18.3125 11.3281 20.1406 9.42188
Q21.9688 7.51562 27.5938 7.51562
L36.8125 7.51562
L36.8125 0
L27.5938 0
Q17.1875 0 13.2344 3.875
Q9.28125 7.76562 9.28125 18.0156
L9.28125 47.7031
L2.6875 47.7031
L2.6875 54.6875
L9.28125 54.6875
L9.28125 70.2188
z
" id="BitstreamVeraSans-Roman-74"/>
      <path d="
M8.5 21.5781
L8.5 54.6875
L17.4844 54.6875
L17.4844 21.9219
Q17.4844 14.1562 20.5 10.2656
Q23.5312 6.39062 29.5938 6.39062
Q36.8594 6.39062 41.0781 11.0312
Q45.3125 15.6719 45.3125 23.6875
L45.3125 54.6875
L54.2969 54.6875
L54.2969 0
L45.3125 0
L45.3125 8.40625
Q42.0469 3.42188 37.7188 1
Q33.4062 -1.42188 27.6875 -1.42188
Q18.2656 -1.42188 13.375 4.4375
Q8.5 10.2969 8.5 21.5781" id="BitstreamVeraSans-Roman-75"/>
      <path d="
M41.1094 46.2969
Q39.5938 47.1719 37.8125 47.5781
Q36.0312 48 33.8906 48
Q26.2656 48 22.1875 43.0469
Q18.1094 38.0938 18.1094 28.8125
L18.1094 0
L9.07812 0
L9.07812 54.6875
L18.1094 54.6875
L18.1094 46.1875
Q20.9531 51.1719 25.4844 53.5781
Q30.0312 56 36.5312 56
Q37.4531 56 38.5781 55.875
Q39.7031 55.7656 41.0625 55.5156
z
" id="BitstreamVeraSans-Roman-72"/>
     </defs>
     <g transform="translate(42.9675 274.8946875)rotate(-90.0)scale(0.12 -0.12)">
      <use xlink:href="#BitstreamVeraSans-Roman-43"/>
      <use x="69.82421875" xlink:href="#BitstreamVeraSans-Roman-75"/>
      <use x="133.203125" xlink:href="#BitstreamVeraSans-Roman-6d"/>
      <use x="230.615234375" xlink:href="#BitstreamVeraSans-Roman-75"/>
      <use x="293.994140625" xlink:href="#BitstreamVeraSans-Roman-6c"/>
      <use x="321.77734375" xlink:href="#BitstreamVeraSans-Roman-61"/>
      <use x="383.056640625" xlink:href="#BitstreamVeraSans-Roman-74"/>
      <use x="422.265625" xlink:href="#BitstreamVeraSans-Roman-69"/>
      <use x="450.048828125" xlink:href="#BitstreamVeraSans-Roman-76"/>
      <use x="509.228515625" xlink:href="#BitstreamVeraSans-Roman-65"/>
      <use x="570.751953125" xlink:href="#BitstreamVeraSans-Roman-20"/>
      <use x="602.5390625" xlink:href="#BitstreamVeraSans-Roman-52"/>
      <use x="667.521484375" xlink:href="#BitstreamVeraSans-Roman-65"/>
      <use x="729.044921875" xlink:href="#BitstreamVeraSans-Roman-74"/>
      <use x="768.25390625" xlink:href="#BitstreamVeraSans-Roman-75"/>
      <use x="831.6328125" xlink:href="#BitstreamVeraSans-Roman-72"/>
      <use x="870.99609375" xlink:href="#BitstreamVeraSans-Roman-6e"/>
      <use x="934.375" xlink:href="#BitstreamVeraSans-Roman-73"/>
     </g>
    </g>
   </g>
   <g id="text_15">
    <!-- Market Relative mean return of 49 events -->
    <defs>
     <path d="
M10.9844 1.51562
L10.9844 10.5
Q14.7031 8.73438 18.5 7.8125
Q22.3125 6.89062 25.9844 6.89062
Q35.75 6.89062 40.8906 13.4531
Q46.0469 20.0156 46.7812 33.4062
Q43.9531 29.2031 39.5938 26.9531
Q35.25 24.7031 29.9844 24.7031
Q19.0469 24.7031 12.6719 31.3125
Q6.29688 37.9375 6.29688 49.4219
Q6.29688 60.6406 12.9375 67.4219
Q19.5781 74.2188 30.6094 74.2188
Q43.2656 74.2188 49.9219 64.5156
Q56.5938 54.8281 56.5938 36.375
Q56.5938 19.1406 48.4062 8.85938
Q40.2344 -1.42188 26.4219 -1.42188
Q22.7031 -1.42188 18.8906 -0.6875
Q15.0938 0.046875 10.9844 1.51562
M30.6094 32.4219
Q37.25 32.4219 41.125 36.9531
Q45.0156 41.5 45.0156 49.4219
Q45.0156 57.2812 41.125 61.8438
Q37.25 66.4062 30.6094 66.4062
Q23.9688 66.4062 20.0938 61.8438
Q16.2188 57.2812 16.2188 49.4219
Q16.2188 41.5 20.0938 36.9531
Q23.9688 32.4219 30.6094 32.4219" id="BitstreamVeraSans-Roman-39"/>
     <path d="
M9.8125 72.9062
L24.5156 72.9062
L43.1094 23.2969
L61.8125 72.9062
L76.5156 72.9062
L76.5156 0
L66.8906 0
L66.8906 64.0156
L48.0938 14.0156
L38.1875 14.0156
L19.3906 64.0156
L19.3906 0
L9.8125 0
z
" id="BitstreamVeraSans-Roman-4d"/>
     <path d="
M37.1094 75.9844
L37.1094 68.5
L28.5156 68.5
Q23.6875 68.5 21.7969 66.5469
Q19.9219 64.5938 19.9219 59.5156
L19.9219 54.6875
L34.7188 54.6875
L34.7188 47.7031
L19.9219 47.7031
L19.9219 0
L10.8906 0
L10.8906 47.7031
L2.29688 47.7031
L2.29688 54.6875
L10.8906 54.6875
L10.8906 58.5
Q10.8906 67.625 15.1406 71.7969
Q19.3906 75.9844 28.6094 75.9844
z
" id="BitstreamVeraSans-Roman-66"/>
     <path d="
M30.6094 48.3906
Q23.3906 48.3906 19.1875 42.75
Q14.9844 37.1094 14.9844 27.2969
Q14.9844 17.4844 19.1562 11.8438
Q23.3438 6.20312 30.6094 6.20312
Q37.7969 6.20312 41.9844 11.8594
Q46.1875 17.5312 46.1875 27.2969
Q46.1875 37.0156 41.9844 42.7031
Q37.7969 48.3906 30.6094 48.3906
M30.6094 56
Q42.3281 56 49.0156 48.375
Q55.7188 40.7656 55.7188 27.2969
Q55.7188 13.875 49.0156 6.21875
Q42.3281 -1.42188 30.6094 -1.42188
Q18.8438 -1.42188 12.1719 6.21875
Q5.51562 13.875 5.51562 27.2969
Q5.51562 40.7656 12.1719 48.375
Q18.8438 56 30.6094 56" id="BitstreamVeraSans-Roman-6f"/>
     <path d="
M9.07812 75.9844
L18.1094 75.9844
L18.1094 31.1094
L44.9219 54.6875
L56.3906 54.6875
L27.3906 29.1094
L57.625 0
L45.9062 0
L18.1094 26.7031
L18.1094 0
L9.07812 0
z
" id="BitstreamVeraSans-Roman-6b"/>
    </defs>
    <g transform="translate(145.249875 38.2)scale(0.144 -0.144)">
     <use xlink:href="#BitstreamVeraSans-Roman-4d"/>
     <use x="86.279296875" xlink:href="#BitstreamVeraSans-Roman-61"/>
     <use x="147.55859375" xlink:href="#BitstreamVeraSans-Roman-72"/>
     <use x="188.671875" xlink:href="#BitstreamVeraSans-Roman-6b"/>
     <use x="242.95703125" xlink:href="#BitstreamVeraSans-Roman-65"/>
     <use x="304.48046875" xlink:href="#BitstreamVeraSans-Roman-74"/>
     <use x="343.689453125" xlink:href="#BitstreamVeraSans-Roman-20"/>
     <use x="375.4765625" xlink:href="#BitstreamVeraSans-Roman-52"/>
     <use x="440.458984375" xlink:href="#BitstreamVeraSans-Roman-65"/>
     <use x="501.982421875" xlink:href="#BitstreamVeraSans-Roman-6c"/>
     <use x="529.765625" xlink:href="#BitstreamVeraSans-Roman-61"/>
     <use x="591.044921875" xlink:href="#BitstreamVeraSans-Roman-74"/>
     <use x="630.25390625" xlink:href="#BitstreamVeraSans-Roman-69"/>
     <use x="658.037109375" xlink:href="#BitstreamVeraSans-Roman-76"/>
     <use x="717.216796875" xlink:href="#BitstreamVeraSans-Roman-65"/>
     <use x="778.740234375" xlink:href="#BitstreamVeraSans-Roman-20"/>
     <use x="810.52734375" xlink:href="#BitstreamVeraSans-Roman-6d"/>
     <use x="907.939453125" xlink:href="#BitstreamVeraSans-Roman-65"/>
     <use x="969.462890625" xlink:href="#BitstreamVeraSans-Roman-61"/>
     <use x="1030.7421875" xlink:href="#BitstreamVeraSans-Roman-6e"/>
     <use x="1094.12109375" xlink:href="#BitstreamVeraSans-Roman-20"/>
     <use x="1125.90820312" xlink:href="#BitstreamVeraSans-Roman-72"/>
     <use x="1164.77148438" xlink:href="#BitstreamVeraSans-Roman-65"/>
     <use x="1226.29492188" xlink:href="#BitstreamVeraSans-Roman-74"/>
     <use x="1265.50390625" xlink:href="#BitstreamVeraSans-Roman-75"/>
     <use x="1328.8828125" xlink:href="#BitstreamVeraSans-Roman-72"/>
     <use x="1368.24609375" xlink:href="#BitstreamVeraSans-Roman-6e"/>
     <use x="1431.625" xlink:href="#BitstreamVeraSans-Roman-20"/>
     <use x="1463.41210938" xlink:href="#BitstreamVeraSans-Roman-6f"/>
     <use x="1524.59375" xlink:href="#BitstreamVeraSans-Roman-66"/>
     <use x="1559.79882812" xlink:href="#BitstreamVeraSans-Roman-20"/>
     <use x="1591.5859375" xlink:href="#BitstreamVeraSans-Roman-34"/>
     <use x="1655.20898438" xlink:href="#BitstreamVeraSans-Roman-39"/>
     <use x="1718.83203125" xlink:href="#BitstreamVeraSans-Roman-20"/>
     <use x="1750.61914062" xlink:href="#BitstreamVeraSans-Roman-65"/>
     <use x="1812.14257812" xlink:href="#BitstreamVeraSans-Roman-76"/>
     <use x="1871.32226562" xlink:href="#BitstreamVeraSans-Roman-65"/>
     <use x="1932.84570312" xlink:href="#BitstreamVeraSans-Roman-6e"/>
     <use x="1996.22460938" xlink:href="#BitstreamVeraSans-Roman-74"/>
     <use x="2035.43359375" xlink:href="#BitstreamVeraSans-Roman-73"/>
    </g>
   </g>
  </g>
 </g>
 <defs>
  <clipPath id="p7ff5b81e1d">
   <rect height="345.6" width="446.4" x="72.0" y="43.2"/>
  </clipPath>
 </defs>
</svg>
